{"title":"Warren Zevon - Stand In The Fire (Remastered + Bonus Tracks)","uid":5055295,"size":411181529,"categoryP":"audio","categoryS":"flac","magnet":"?xt=urn:btih:43c534c6693bd03972154fe7d6a81b58adcd3733&amp;dn=Warren+Zevon+-+Stand+In+The+Fire+%28Remastered+%2B+Bonus+Tracks%29&amp;tr=udp%3A%2F%2Ftracker.openbittorrent.com%3A80&amp;tr=udp%3A%2F%2Fopen.demonii.com%3A1337&amp;tr=udp%3A%2F%2Ftracker.coppersurfer.tk%3A6969&amp;tr=udp%3A%2F%2Fexodus.desync.com%3A6969","seeders":0,"leechers":1,"uploader":"sowingmyseed","files":16,"time":1250378902,"description":"Exact Audio Copy V0.99 prebeta 4 from 23. January 2008\n\nEAC extraction logfile from 15. August 2009, 14:10\n\nWarren Zevon / Stand In The Fire (Remastered + Expanded)\n\nUsed drive  : ATAPI   DVD D  DH16D3P   Adapter: 0  ID: 1\n\nRead mode               : Secure\nUtilize accurate stream : Yes\nDefeat audio cache      : No\nMake use of C2 pointers : No\n\nRead offset correction                      : 6\nOverread into Lead-In and Lead-Out          : No\nFill up missing offset samples with silence : Yes\nDelete leading and trailing silent blocks   : No\nNull samples used in CRC calculations       : No\nUsed interface                              : Installed external ASPI interface\nGap handling                                : Not detected, thus appended to previous track\n\nUsed output format              : User Defined Encoder\nSelected bitrate                : 768 kBit/s\nQuality                         : High\nAdd ID3 tag                     : No\nCommand line compressor         : C:Program FilesExact Audio CopyFLACFLAC.EXE\nAdditional command line options : -6 -V -T &quot;ARTIST=%a&quot; -T &quot;TITLE=%t&quot; -T &quot;ALBUM=%g&quot; -T &quot;DATE=%y&quot; -T &quot;TRACKNUMBER=%n&quot; -T &quot;GENRE=%m&quot; -T &quot;COMMENT=%e&quot; %s -o %d\n\n\nTOC of the extracted CD\n\n     Track |   Start  |  Length  | Start sector | End sector \n    ---------------------------------------------------------\n        1  |  0:00.00 |  3:37.24 |         0    |    16298   \n        2  |  3:37.24 |  4:11.23 |     16299    |    35146   \n        3  |  7:48.47 |  4:03.19 |     35147    |    53390   \n        4  | 11:51.66 |  4:50.06 |     53391    |    75146   \n        5  | 16:41.72 |  4:59.31 |     75147    |    97602   \n        6  | 21:41.28 |  3:58.06 |     97603    |   115458   \n        7  | 25:39.34 |  3:17.73 |    115459    |   130306   \n        8  | 28:57.32 |  4:18.28 |    130307    |   149684   \n        9  | 33:15.60 |  4:46.62 |    149685    |   171196   \n       10  | 38:02.47 |  4:39.69 |    171197    |   192190   \n       11  | 42:42.41 |  3:58.22 |    192191    |   210062   \n       12  | 46:40.63 |  4:50.02 |    210063    |   231814   \n       13  | 51:30.65 |  4:27.74 |    231815    |   251913   \n       14  | 55:58.64 |  4:33.56 |    251914    |   272444   \n\n\nTrack  1\n\n     Filename E:MusicWarren ZevonStand In The Fire (Remastered + Expanded)Warren Zevon - Stand In The Fire (Remastered + Expanded) - 01. Stand In The Fire [live].wav\n\n     Peak level 92.6 %\n     Track quality 100.0 %\n     Test CRC EAAB7270\n     Copy CRC EAAB7270\n     Accurately ripped (confidence 18)  [3A5068F9]\n     Copy OK\n\nTrack  2\n\n     Filename E:MusicWarren ZevonStand In The Fire (Remastered + Expanded)Warren Zevon - Stand In The Fire (Remastered + Expanded) - 02. Jeannie Needs A Shooter [live].wav\n\n     Peak level 93.0 %\n     Track quality 100.0 %\n     Test CRC A8AAD877\n     Copy CRC A8AAD877\n     Accurately ripped (confidence 18)  [A81F847A]\n     Copy OK\n\nTrack  3\n\n     Filename E:MusicWarren ZevonStand In The Fire (Remastered + Expanded)Warren Zevon - Stand In The Fire (Remastered + Expanded) - 03. Excitable Boy [live].wav\n\n     Peak level 93.2 %\n     Track quality 100.0 %\n     Test CRC FD1269AA\n     Copy CRC FD1269AA\n     Accurately ripped (confidence 18)  [3CB74C78]\n     Copy OK\n\nTrack  4\n\n     Filename E:MusicWarren ZevonStand In The Fire (Remastered + Expanded)Warren Zevon - Stand In The Fire (Remastered + Expanded) - 04. Mohammed's Radio [live].wav\n\n     Peak level 96.2 %\n     Track quality 100.0 %\n     Test CRC 18871FFD\n     Copy CRC 18871FFD\n     Accurately ripped (confidence 18)  [583921C3]\n     Copy OK\n\nTrack  5\n\n     Filename E:MusicWarren ZevonStand In The Fire (Remastered + Expanded)Warren Zevon - Stand In The Fire (Remastered + Expanded) - 05. Werewolves Of London [live].wav\n\n     Peak level 91.2 %\n     Track quality 100.0 %\n     Test CRC 8EE0FE13\n     Copy CRC 8EE0FE13\n     Accurately ripped (confidence 19)  [DF1A22A7]\n     Copy OK\n\nTrack  6\n\n     Filename E:MusicWarren ZevonStand In The Fire (Remastered + Expanded)Warren Zevon - Stand In The Fire (Remastered + Expanded) - 06. Lawyers, Guns And Money [live].wav\n\n     Peak level 95.8 %\n     Track quality 99.9 %\n     Test CRC C3E4B7E1\n     Copy CRC C3E4B7E1\n     Accurately ripped (confidence 19)  [1647BD50]\n     Copy OK\n\nTrack  7\n\n     Filename E:MusicWarren ZevonStand In The Fire (Remastered + Expanded)Warren Zevon - Stand In The Fire (Remastered + Expanded) - 07. The Sin [live].wav\n\n     Peak level 93.9 %\n     Track quality 100.0 %\n     Test CRC F1F07CCE\n     Copy CRC F1F07CCE\n     Accurately ripped (confidence 18)  [FD0FA20D]\n     Copy OK\n\nTrack  8\n\n     Filename E:MusicWarren ZevonStand In The Fire (Remastered + Expanded)Warren Zevon - Stand In The Fire (Remastered + Expanded) - 08. Poor Poor Pitiful Me [live].wav\n\n     Peak level 95.4 %\n     Track quality 99.9 %\n     Test CRC 5FB2FEA2\n     Copy CRC 5FB2FEA2\n     Accurately ripped (confidence 18)  [06B54A78]\n     Copy OK\n\nTrack  9\n\n     Filename E:MusicWarren ZevonStand In The Fire (Remastered + Expanded)Warren Zevon - Stand In The Fire (Remastered + Expanded) - 09. I'll Sleep When I'm Dead [live].wav\n\n     Peak level 92.6 %\n     Track quality 100.0 %\n     Test CRC D765AB14\n     Copy CRC D765AB14\n     Accurately ripped (confidence 17)  [F66602F5]\n     Copy OK\n\nTrack 10\n\n     Filename E:MusicWarren ZevonStand In The Fire (Remastered + Expanded)Warren Zevon - Stand In The Fire (Remastered + Expanded) - 10. Bo Diddley's A Gunslinger + Bo Diddley [live].wav\n\n     Peak level 90.5 %\n     Track quality 99.9 %\n     Test CRC A301ABCF\n     Copy CRC A301ABCF\n     Accurately ripped (confidence 17)  [1BCB88B2]\n     Copy OK\n\nTrack 11\n\n     Filename E:MusicWarren ZevonStand In The Fire (Remastered + Expanded)Warren Zevon - Stand In The Fire (Remastered + Expanded) - 11. Johnny Strikes Up The Band (Previously Unissued) [live].wav\n\n     Peak level 100.0 %\n     Track quality 100.0 %\n     Test CRC 7920A8B5\n     Copy CRC 7920A8B5\n     Accurately ripped (confidence 17)  [D3F318B4]\n     Copy OK\n\nTrack 12\n\n     Filename E:MusicWarren ZevonStand In The Fire (Remastered + Expanded)Warren Zevon - Stand In The Fire (Remastered + Expanded) - 12. Play It All Night Long (Previously Unissued Bonus Track).wav\n\n     Peak level 100.0 %\n     Track quality 100.0 %\n     Test CRC 0ADBEA9C\n     Copy CRC 0ADBEA9C\n     Accurately ripped (confidence 17)  [E63694BF]\n     Copy OK\n\nTrack 13\n\n     Filename E:MusicWarren ZevonStand In The Fire (Remastered + Expanded)Warren Zevon - Stand In The Fire (Remastered + Expanded) - 13. Frank And Jesse James (Previously Unissued) [live].wav\n\n     Peak level 83.0 %\n     Track quality 99.9 %\n     Test CRC C2005B58\n     Copy CRC C2005B58\n     Accurately ripped (confidence 17)  [421FB02B]\n     Copy OK\n\nTrack 14\n\n     Filename E:MusicWarren ZevonStand In The Fire (Remastered + Expanded)Warren Zevon - Stand In The Fire (Remastered + Expanded) - 14. Hasten Down The Wind (Previously Unissued) [live].wav\n\n     Peak level 82.6 %\n     Track quality 100.0 %\n     Test CRC 02A665FC\n     Copy CRC 02A665FC\n     Accurately ripped (confidence 17)  [97757EB8]\n     Copy OK\n\n\nAll tracks accurately ripped\n\nNo errors occurred\n\nEnd of status report\n","torrent":{"xt":"urn:btih:43c534c6693bd03972154fe7d6a81b58adcd3733","amp;dn":"Warren+Zevon+-+Stand+In+The+Fire+%28Remastered+%2B+Bonus+Tracks%29","amp;tr":["udp%3A%2F%2Ftracker.openbittorrent.com%3A80","udp%3A%2F%2Fopen.demonii.com%3A1337","udp%3A%2F%2Ftracker.coppersurfer.tk%3A6969","udp%3A%2F%2Fexodus.desync.com%3A6969"],"infoHash":"43c534c6693bd03972154fe7d6a81b58adcd3733","infoHashBuffer":{"type":"Buffer","data":[67,197,52,198,105,59,208,57,114,21,79,231,214,168,27,88,173,205,55,51]},"announce":[],"urlList":[]}}